<svg xmlns="http://www.w3.org/2000/svg" xmlns:xlink="http://www.w3.org/1999/xlink" width="30" height="30" viewBox="0 0 30 30">
  <defs>
    <clipPath id="clip-path">
      <rect id="Rectangle_44" data-name="Rectangle 44" width="30" height="30" transform="translate(0 0.253)" fill="#767676"/>
    </clipPath>
  </defs>
  <g id="Mask_Group_7" data-name="Mask Group 7" transform="translate(0 -0.253)" clip-path="url(#clip-path)">
    <path id="whatsapp" d="M.095,30,2.2,22.3a14.865,14.865,0,1,1,5.772,5.636L.095,30Zm8.246-4.759a12.327,12.327,0,1,0-3.429-3.334l-1.249,4.56,4.677-1.226Zm14.234-6.83c-.092-.155-.34-.247-.712-.434s-2.2-1.085-2.539-1.209-.587-.186-.836.186-.96,1.209-1.176,1.456-.434.279-.805.093a10.138,10.138,0,0,1-2.988-1.844,11.182,11.182,0,0,1-2.066-2.574c-.216-.371-.022-.572.163-.758.168-.166.371-.434.557-.651a2.437,2.437,0,0,0,.375-.619.683.683,0,0,0-.031-.651c-.094-.185-.836-2.014-1.145-2.758-.3-.724-.609-.626-.836-.638L9.823,8a1.361,1.361,0,0,0-.99.465,4.168,4.168,0,0,0-1.3,3.1,7.229,7.229,0,0,0,1.516,3.842,16.561,16.561,0,0,0,6.345,5.609,21.493,21.493,0,0,0,2.118.782,5.106,5.106,0,0,0,2.34.148,3.826,3.826,0,0,0,2.508-1.766,3.1,3.1,0,0,0,.216-1.767Z" transform="translate(-0.024)" fill="#767676"/>
  </g>
</svg>
