<svg xmlns="http://www.w3.org/2000/svg" xmlns:xlink="http://www.w3.org/1999/xlink" width="25" height="25" viewBox="0 0 25 25">
  <defs>
    <clipPath id="clip-path">
      <rect id="Rectangle_58" data-name="Rectangle 58" width="25" height="25" transform="translate(283 37)" fill="#fff"/>
    </clipPath>
  </defs>
  <g id="Mask_Group_23" data-name="Mask Group 23" transform="translate(-283 -37)" clip-path="url(#clip-path)">
    <path id="whatsapp" d="M.059,25l1.757-6.42a12.387,12.387,0,1,1,4.81,4.7L.059,25Zm6.872-3.966a10.272,10.272,0,1,0-2.857-2.778l-1.041,3.8,3.9-1.022Zm11.861-5.692c-.077-.129-.283-.206-.594-.361s-1.831-.9-2.116-1.007-.49-.155-.7.155-.8,1.007-.98,1.214-.361.232-.671.077a8.448,8.448,0,0,1-2.49-1.536,9.318,9.318,0,0,1-1.722-2.145c-.18-.309-.019-.477.135-.631.14-.139.309-.361.465-.543a2.03,2.03,0,0,0,.313-.516.569.569,0,0,0-.026-.543c-.078-.154-.7-1.678-.954-2.3-.252-.6-.507-.522-.7-.531l-.594-.01a1.134,1.134,0,0,0-.825.388A3.473,3.473,0,0,0,6.257,9.636a6.024,6.024,0,0,0,1.264,3.2,13.8,13.8,0,0,0,5.287,4.674,17.911,17.911,0,0,0,1.765.652,4.255,4.255,0,0,0,1.95.123,3.188,3.188,0,0,0,2.09-1.472,2.579,2.579,0,0,0,.18-1.473Z" transform="translate(283 37)" fill="#fff"/>
  </g>
</svg>
