<svg xmlns="http://www.w3.org/2000/svg" xmlns:xlink="http://www.w3.org/1999/xlink" width="60" height="60" viewBox="0 0 60 60">
  <defs>
    <clipPath id="clip-path">
      <rect id="Rectangle_69" data-name="Rectangle 69" width="60" height="60" transform="translate(409 5398)" fill="#fff" stroke="#707070" stroke-width="1"/>
    </clipPath>
  </defs>
  <g id="img-depo4" transform="translate(-409 -5398)" clip-path="url(#clip-path)">
    <path id="flower4" d="M21.25,8.877a8.751,8.751,0,1,1,17.5,0A8.75,8.75,0,1,1,51.122,21.25a8.751,8.751,0,1,1,0,17.5A8.75,8.75,0,1,1,38.75,51.122a8.751,8.751,0,1,1-17.5,0A8.75,8.75,0,1,1,8.877,38.75a8.751,8.751,0,1,1,0-17.5A8.75,8.75,0,1,1,21.25,8.877ZM30,21.25A8.75,8.75,0,1,1,21.25,30,8.753,8.753,0,0,1,30,21.25Z" transform="translate(409 5398)" fill="#618f37" fill-rule="evenodd"/>
  </g>
</svg>
