<svg xmlns="http://www.w3.org/2000/svg" xmlns:xlink="http://www.w3.org/1999/xlink" width="60" height="60" viewBox="0 0 60 60">
  <defs>
    <clipPath id="clip-path">
      <rect id="Rectangle_69" data-name="Rectangle 69" width="60" height="60" transform="translate(409 5398)" fill="#fff" stroke="#707070" stroke-width="1"/>
    </clipPath>
  </defs>
  <g id="img-depo3" transform="translate(-409 -5398)" clip-path="url(#clip-path)">
    <path id="flower3" d="M30,60a10.459,10.459,0,0,1-7.557-3.2,10.612,10.612,0,0,1-2.19-3.338A10.564,10.564,0,0,1,8.785,51.212,10.574,10.574,0,0,1,6.5,39.725,10.4,10.4,0,0,1,0,30a10.535,10.535,0,0,1,6.5-9.75A10.4,10.4,0,0,1,8.785,8.787a10.762,10.762,0,0,1,11.477-2.27A10.587,10.587,0,0,1,22.45,3.2,10.517,10.517,0,0,1,39.727,6.515,10.722,10.722,0,0,1,51.212,8.787a10.3,10.3,0,0,1,2.26,11.452A10.535,10.535,0,0,1,60,30a10.4,10.4,0,0,1-6.515,9.73,10.393,10.393,0,0,1-2.272,11.482,10.77,10.77,0,0,1-11.483,2.27A10.4,10.4,0,0,1,30,60ZM16.85,35.52l-4.483,4.305a5.522,5.522,0,0,0-.045,7.853,5.63,5.63,0,0,0,7.925-.12l4.153-4.23.078,6.108A5.586,5.586,0,0,0,30,55a5.524,5.524,0,0,0,5.52-5.637V43.328L39.787,47.6a5.685,5.685,0,0,0,7.89.083,5.522,5.522,0,0,0-.083-7.89L43.33,35.52h6.032a5.524,5.524,0,1,0,.22-11.045H43.715l3.843-4.225a5.5,5.5,0,0,0,.12-7.927,5.689,5.689,0,0,0-7.855.047l-4.3,4.482V10.638a5.522,5.522,0,1,0-11.043-.07l-.02,6.285-4.245-4.448a5.691,5.691,0,0,0-7.892-.083,5.525,5.525,0,0,0,.085,7.89l4.448,4.445-6.285-.18h0a5.522,5.522,0,1,0,.075,11.042H16.85ZM30,22.5A7.5,7.5,0,1,1,22.5,30,7.5,7.5,0,0,1,30,22.5Z" transform="translate(409 5398)" fill="#618f37" fill-rule="evenodd"/>
  </g>
</svg>
