<svg xmlns="http://www.w3.org/2000/svg" xmlns:xlink="http://www.w3.org/1999/xlink" width="60" height="60" viewBox="0 0 60 60">
  <defs>
    <clipPath id="clip-path">
      <rect id="Rectangle_69" data-name="Rectangle 69" width="60" height="60" transform="translate(409 5398)" fill="#fff" stroke="#707070" stroke-width="1"/>
    </clipPath>
  </defs>
  <g id="img-depo2" transform="translate(-409 -5398)" clip-path="url(#clip-path)">
    <path id="flower2" d="M29.992,60C13.9,60.03,6.967,40.757,2.5,37.8c15.407-6.652,23.89.412,27.5,6.472l.085-.142C33.742,38.107,42.212,31.2,57.5,37.8,53.032,40.757,46.1,60.03,30.007,60h-.015Zm.015-5c10.24,0,18.32-14.29,18.32-14.29-5.747-1.305-10.4.483-18.145,11.475L30,52.447C22.147,41.22,17.465,39.395,11.672,40.71c0,0,8.08,14.29,18.32,14.29Zm.125-17.5a8.477,8.477,0,0,1-7.812-5.217,8.566,8.566,0,0,1-8.425-4.157,8.476,8.476,0,0,1,.612-9.375A8.458,8.458,0,0,1,22.322,5.217a8.456,8.456,0,0,1,15.622,0A8.456,8.456,0,0,1,45.757,18.75a8.489,8.489,0,0,1,.615,9.375,8.587,8.587,0,0,1-8.427,4.157A8.482,8.482,0,0,1,30.132,37.5ZM26.655,24.775l.02,4.282a3.458,3.458,0,0,0,6.915,0l.02-4.275L37.327,26.9a3.548,3.548,0,0,0,4.712-1.275,3.461,3.461,0,0,0-1.252-4.715l-3.7-2.16,3.7-2.16a3.463,3.463,0,0,0,1.252-4.717A3.553,3.553,0,0,0,37.332,10.6L33.61,12.73l-.02-4.29a3.458,3.458,0,0,0-6.915,0l-.02,4.285L22.935,10.6a3.548,3.548,0,0,0-4.71,1.27,3.466,3.466,0,0,0,1.25,4.717l3.7,2.16-3.7,2.16a3.464,3.464,0,0,0-1.25,4.715,3.548,3.548,0,0,0,4.71,1.275ZM30,13.7a5,5,0,1,1-5,5,5,5,0,0,1,5-5Z" transform="translate(409 5398)" fill="#618f37" fill-rule="evenodd"/>
  </g>
</svg>
