<svg xmlns="http://www.w3.org/2000/svg" xmlns:xlink="http://www.w3.org/1999/xlink" width="15" height="15" viewBox="0 0 15 15">
  <defs>
    <clipPath id="clip-path">
      <rect id="Rectangle_58" data-name="Rectangle 58" width="15" height="15" transform="translate(283 37)" fill="#fff"/>
    </clipPath>
  </defs>
  <g id="whatsapp" transform="translate(-283 -37)" clip-path="url(#clip-path)">
    <path id="whatsapp-2" data-name="whatsapp" d="M.059,15l1.054-3.852A7.432,7.432,0,1,1,4,13.966L.059,15Zm4.123-2.379a6.163,6.163,0,1,0-1.714-1.667l-.624,2.28,2.339-.613ZM11.3,9.206c-.046-.077-.17-.124-.356-.217s-1.1-.543-1.269-.6-.294-.093-.418.093-.48.6-.588.728-.217.139-.4.046A5.069,5.069,0,0,1,6.771,8.33,5.591,5.591,0,0,1,5.738,7.043c-.108-.186-.011-.286.081-.379s.186-.217.279-.326a1.218,1.218,0,0,0,.188-.309A.341.341,0,0,0,6.27,5.7C6.223,5.611,5.852,4.7,5.7,4.325s-.3-.313-.418-.319L4.923,4a.68.68,0,0,0-.495.233,2.084,2.084,0,0,0-.65,1.549A3.614,3.614,0,0,0,4.536,7.7a8.281,8.281,0,0,0,3.173,2.8,10.746,10.746,0,0,0,1.059.391,2.553,2.553,0,0,0,1.17.074,1.913,1.913,0,0,0,1.254-.883,1.547,1.547,0,0,0,.108-.884Z" transform="translate(282.976 37)" fill="#fff"/>
  </g>
</svg>
