<svg xmlns="http://www.w3.org/2000/svg" xmlns:xlink="http://www.w3.org/1999/xlink" width="25" height="25" viewBox="0 0 25 25">
  <defs>
    <clipPath id="clip-path">
      <rect id="Rectangle_57" data-name="Rectangle 57" width="25" height="25" transform="translate(543 29)" fill="#fff" stroke="#707070" stroke-width="1"/>
    </clipPath>
  </defs>
  <g id="Mask_Group_22" data-name="Mask Group 22" transform="translate(-543 -29)" clip-path="url(#clip-path)">
    <path id="instagran" d="M12.5,2.253c3.337,0,3.733.013,5.052.073,3.387.154,4.97,1.761,5.124,5.124.06,1.318.072,1.714.072,5.051s-.012,3.733-.072,5.051c-.155,3.359-1.733,4.97-5.124,5.124-1.319.06-1.713.073-5.052.073s-3.733-.012-5.051-.073c-3.4-.155-4.97-1.77-5.124-5.125-.06-1.318-.073-1.713-.073-5.051s.014-3.732.073-5.051c.155-3.361,1.733-4.97,5.124-5.124,1.319-.059,1.714-.072,5.051-.072ZM12.5,0C9.105,0,8.68.015,7.347.075,2.807.283.284,2.8.076,7.346.015,8.68,0,9.105,0,12.5s.015,3.821.075,5.154c.208,4.54,2.727,7.063,7.271,7.271C8.68,24.985,9.105,25,12.5,25s3.821-.015,5.154-.075c4.535-.208,7.065-2.727,7.27-7.271.061-1.333.076-1.759.076-5.154s-.015-3.82-.075-5.153C24.721,2.811,22.2.284,17.655.076,16.321.015,15.895,0,12.5,0Zm0,6.081A6.419,6.419,0,1,0,18.919,12.5,6.419,6.419,0,0,0,12.5,6.081Zm0,10.585A4.167,4.167,0,1,1,16.667,12.5,4.166,4.166,0,0,1,12.5,16.667ZM19.173,4.328a1.5,1.5,0,1,0,1.5,1.5A1.5,1.5,0,0,0,19.173,4.328Z" transform="translate(543 29)" fill="#fff"/>
  </g>
</svg>
